<svg height="512pt" viewBox="0 0 512 512" width="512pt" xmlns="http://www.w3.org/2000/svg"><path d="m512 256c0 141.386719-114.613281 256-256 256s-256-114.613281-256-256 114.613281-256 256-256 256 114.613281 256 256zm0 0" fill="#ffda00"/><path d="m512 256c0-11.386719-.753906-22.597656-2.195312-33.59375l-115.96875-115.96875-23.0625 29.847656-59.28125-59.285156-220.183594 123.992188-8.519532 164.59375 144.84375 144.839843c9.316407 1.027344 18.777344 1.574219 28.367188 1.574219 141.386719 0 256-114.613281 256-256zm0 0" fill="#ffc200"/><path d="m178 382.796875h-54.191406c-31.75 0-57.582032-25.832031-57.582032-57.585937v-99.523438c0-31.75 25.832032-57.582031 57.582032-57.582031h54.191406v34h-54.191406c-13.003906 0-23.582032 10.578125-23.582032 23.582031v99.523438c0 13.003906 10.582032 23.585937 23.582032 23.585937h54.191406zm0 0" fill="#966857"/><path d="m136.5 135h239v282h-239zm0 0" fill="#b15f4c"/><path d="m255.644531 135h119.855469v282h-119.855469zm0 0" fill="#985040"/><path d="m205.988281 135h98.023438v282h-98.023438zm0 0" fill="#966857"/><path d="m255.644531 135h48.367188v282h-48.367188zm0 0" fill="#8d5c4d"/><path d="m136.5 185.101562h239v48.585938h-239zm0 0" fill="#5a5a5a"/><path d="m255.644531 185.101562h119.855469v48.585938h-119.855469zm0 0" fill="#353535"/><path d="m136.5 317h239v48.585938h-239zm0 0" fill="#5a5a5a"/><path d="m255.644531 317h119.855469v48.585938h-119.855469zm0 0" fill="#353535"/><path d="m351.25 86.527344c-9.210938 0-17.886719 2.253906-25.535156 6.226562-15.550782-22.199218-41.304688-36.726562-70.464844-36.726562-28.914062 0-54.476562 14.28125-70.066406 36.164062-7.375-3.625-15.664063-5.664062-24.433594-5.664062-30.652344 0-55.5 24.847656-55.5 55.5s24.847656 55.5 55.5 55.5c8.769531 0 17.058594-2.042969 24.433594-5.664063 15.589844 21.878907 41.152344 36.164063 70.066406 36.164063 29.160156 0 54.914062-14.53125 70.464844-36.726563 7.644531 3.96875 16.324218 6.226563 25.535156 6.226563 30.652344 0 55.5-24.847656 55.5-55.5s-24.847656-55.5-55.5-55.5zm0 0" fill="#fff"/><path d="m351.25 86.527344c-9.210938 0-17.886719 2.253906-25.535156 6.226562-15.480469-22.101562-41.074219-36.589844-70.070313-36.722656v171.988281c28.996094-.128906 54.589844-14.621093 70.070313-36.71875 7.644531 3.96875 16.324218 6.226563 25.535156 6.226563 30.652344 0 55.5-24.847656 55.5-55.5s-24.847656-55.5-55.5-55.5zm0 0" fill="#dce1eb"/></svg>